<?xml version="1.0" encoding="UTF-8" standalone="no"?>
<svg
   width="16"
   height="16"
   viewBox="0 0 16 16"
   class="global-nav__logo"
   version="1.1"
   id="svg6"
   sodipodi:docname="logo.svg"
   inkscape:version="1.1.1 (3bf5ae0d25, 2021-09-20)"
   inkscape:export-filename="C:\Users\bjrat\WebstormProjects\linkedin-cs-terms\public\logo.png"
   inkscape:export-xdpi="96"
   inkscape:export-ydpi="96"
   xmlns:inkscape="http://www.inkscape.org/namespaces/inkscape"
   xmlns:sodipodi="http://sodipodi.sourceforge.net/DTD/sodipodi-0.dtd"
   xmlns="http://www.w3.org/2000/svg"
   xmlns:svg="http://www.w3.org/2000/svg">
  <defs
     id="defs10" />
  <sodipodi:namedview
     id="namedview8"
     pagecolor="#ffffff"
     bordercolor="#666666"
     borderopacity="1.0"
     inkscape:pageshadow="2"
     inkscape:pageopacity="0"
     inkscape:pagecheckerboard="false"
     showgrid="false"
     inkscape:zoom="47.764704"
     inkscape:cx="7.1915028"
     inkscape:cy="7.1496308"
     inkscape:window-width="1920"
     inkscape:window-height="1001"
     inkscape:window-x="-9"
     inkscape:window-y="-9"
     inkscape:window-maximized="1"
     inkscape:current-layer="svg6"
     fit-margin-top="0"
     fit-margin-left="0"
     fit-margin-right="0"
     fit-margin-bottom="0" />
  <g
     id="g4"
     transform="matrix(0.41176471,0,0,0.41176471,0.99999993,0.99999993)"
     style="fill:#0a66c2;fill-opacity:1">
    <path
       d="m 34,2.5 v 29 A 2.5,2.5 0 0 1 31.5,34 H 2.5 A 2.5,2.5 0 0 1 0,31.5 V 2.5 A 2.5,2.5 0 0 1 2.5,0 h 29 A 2.5,2.5 0 0 1 34,2.5 Z M 10,13 H 5 v 16 h 5 z M 10.45,7.5 A 2.88,2.88 0 0 0 7.59,4.6 H 7.5 a 2.9,2.9 0 0 0 0,5.8 v 0 A 2.88,2.88 0 0 0 10.45,7.59 Z M 29,19.28 C 29,14.47 25.94,12.6 22.9,12.6 a 5.7,5.7 0 0 0 -5.06,2.58 H 17.7 V 13 H 13 v 16 h 5 v -8.51 a 3.32,3.32 0 0 1 3,-3.58 h 0.19 c 1.59,0 2.77,1 2.77,3.52 V 29 h 5 z"
       fill="currentColor"
       id="path2"
       style="fill:#0a66c2;fill-opacity:1" />
  </g>
  <ellipse
     style="fill:#ffffff;stroke-width:1.22963"
     id="path849"
     ry="1.2426819"
     rx="1.2287287"
     cy="4.1163526"
     cx="4.100697" />
  <rect
     style="fill:#ffffff"
     id="rect989"
     width="2.0588236"
     height="6.5882354"
     x="3.0588236"
     y="6.352941" />
  <g
     id="g2408">
    <rect
       style="fill:#ffffff"
       id="rect991"
       width="2.0588236"
       height="6.5882354"
       x="6.352941"
       y="6.352941" />
    <path
       style="fill:#ffffff;stroke:none;stroke-width:0.1;stroke-linecap:butt;stroke-linejoin:miter;stroke-miterlimit:4;stroke-dasharray:none;stroke-opacity:1"
       d="m 12.924706,12.941177 0.01395,-4.6509592 C 12.588508,5.8886079 9.3793827,5.5446132 8.3982173,7.1459084 l 0.013547,2.2911504 C 8.4827619,7.5691261 10.839409,7.4319213 10.866102,9.3561028 l -2.25e-4,3.5850742 z"
       id="path1045"
       sodipodi:nodetypes="ccccccc" />
  </g>
</svg>
