<svg xmlns="http://www.w3.org/2000/svg" width="3421.12" height="632.962" viewBox="0 0 3421.12 632.962">
    <g id="Group_1" transform="translate(-363.038 -146)">
        <g id="logo" transform="translate(362.038 145)">
            <g id="g4" transform="translate(1 1)">
                <path id="path2" d="M632.962,46.541V586.42a46.541,46.541,0,0,1-46.541,46.541H46.541A46.541,46.541,0,0,1,0,586.42V46.541A46.541,46.541,0,0,1,46.541,0H586.42A46.541,46.541,0,0,1,632.962,46.541Zm-446.8,195.474H93.083V539.879h93.083Zm8.377-102.391A53.616,53.616,0,0,0,141.3,85.636h-1.675a53.988,53.988,0,1,0,0,107.976h0A53.616,53.616,0,0,0,194.543,141.3Zm345.337,219.3c0-89.546-56.967-124.358-113.561-124.358a106.114,106.114,0,0,0-94.2,48.031h-2.606V242.015h-87.5V539.879H335.1V381.453a61.807,61.807,0,0,1,55.85-66.647h3.537c29.6,0,51.568,18.617,51.568,65.53V539.879h93.083Z" fill="#fff"/>
            </g>
            <ellipse id="path849" cx="1.62" cy="1.639" rx="1.62" ry="1.639" transform="translate(3.469 3.471)" fill="#fff"/>
            <rect id="rect989" width="2.715" height="8.688" transform="translate(3.715 622.559)" fill="#fff"/>
            <g id="g2408" transform="translate(622.559 622.312)">
                <rect id="rect991" width="2.715" height="8.688" transform="translate(0 0.248)" fill="#fff"/>
                <path id="path1045" d="M14.367,15.1l.018-6.133C13.924,5.8,9.692,5.347,8.4,7.458l.018,3.021c.094-2.463,3.2-2.644,3.236-.107V15.1Z" transform="translate(-5.701 -6.165)" fill="#fff"/>
            </g>
        </g>
        <path id="Path_1" d="M325.846,339.888c-19.392,7.757-52.359,14.221-82.094,14.221-87.912,0-139.625-54.945-139.625-142.211,0-96.962,60.763-144.15,138.979-144.15,34.906,0,62.7,7.757,82.741,16.16L345.885,5.692C328.432-3.357,289.647-13.7,238.58-13.7,106.712-13.7.7,69.041.7,217.716c0,124.111,77.57,217.841,228.184,217.841,53.006,0,93.73-9.7,111.829-18.746Zm62.7,69.166c24.564,13.575,73.691,26.5,123.465,26.5,119.587,0,175.824-62.056,175.824-135.1,0-61.409-36.2-101.487-113.122-129.929-56.238-21.332-80.8-33.614-80.8-61.409,0-22.624,20.685-42.017,63.349-42.017a207.112,207.112,0,0,1,91.144,20.685L670.384,8.278C644.528-3.357,608.329-13.7,559.2-13.7c-102.78,0-164.835,56.884-164.835,131.222,0,63.349,47.188,103.426,119.587,128.636C566.312,264.9,587,280.418,587,307.567c0,28.442-23.917,47.188-69.166,47.188-42.017,0-82.741-13.575-109.244-27.149Zm555.269,20.039h98.9V76.151h118.94V-6.589H826.816V76.151h117Zm493.86-126.7a233.4,233.4,0,0,0,3.232-38.785c0-78.216-38.785-157.725-140.918-157.725-109.89,0-159.664,88.559-159.664,168.714,0,98.9,61.409,160.957,168.714,160.957,42.663,0,82.094-6.464,114.415-19.392l-12.928-66.581c-26.5,8.4-53.652,12.928-87.266,12.928-45.9,0-85.973-19.392-89.205-60.116Zm-204.266-67.227c2.586-26.5,19.392-63.995,60.763-63.995,45.249,0,55.592,40.078,55.592,63.995Zm266.322,193.924h98.255V268.783a115.861,115.861,0,0,1,1.939-21.978c6.464-30.381,31.028-49.774,67.227-49.774a140.852,140.852,0,0,1,26.5,2.586V107.179c-7.111-1.293-11.635-1.293-20.685-1.293-30.381,0-69.166,19.392-85.326,65.288h-2.586L1581.827,113h-84.68c1.293,27.149,2.586,57.531,2.586,104.073Zm245.637,0h95.669V244.865c0-7.757.646-16.807,3.879-24.564,5.817-16.16,20.685-35.553,45.895-35.553,31.028,0,45.249,27.149,45.249,67.227V429.093h95.669V244.219c0-7.757,1.293-18.1,3.878-25.21,6.464-18.746,22.625-34.26,45.249-34.26,31.674,0,46.542,26.5,46.542,72.4V429.093h95.669V242.926c0-94.376-45.9-137.04-106.658-137.04-23.271,0-42.663,5.171-60.116,15.514a141.471,141.471,0,0,0-40.724,38.138h-1.293c-13.575-32.967-45.9-53.652-86.62-53.652-54.3,0-82.094,29.735-95.669,49.774h-1.939L1825.525,113h-82.741c1.293,27.8,2.586,61.409,2.586,100.841Zm537.815-15.514c23.918,12.928,60.763,21.978,102.134,21.978,90.5,0,137.04-43.31,137.04-102.133-.646-46.542-25.857-76.923-85.973-97.608-38.785-13.575-51.067-21.332-51.067-36.2,0-16.16,13.575-25.857,37.492-25.857,27.149,0,54.3,10.343,68.52,18.1l17.453-67.873c-19.393-9.7-52.359-18.1-89.205-18.1-78.216,0-128.636,44.6-128.636,103.426-.646,37.492,24.564,73.045,89.851,95.023,36.846,12.282,46.542,20.039,46.542,36.2s-12.282,26.5-42.017,26.5c-29.089,0-66.581-12.928-84.68-23.917Z" transform="translate(1261.3 271.552)" fill="#fff" stroke="#707070" stroke-width="1"/>
    </g>
</svg>
